<svg xmlns="http://www.w3.org/2000/svg" viewBox="0 0 202.17 202.17"><defs><style>.cls-1{fill:#231f20;}.cls-2{fill:#fff;}</style></defs><g id="Layer_2" data-name="Layer 2"><g id="Layer_1-2" data-name="Layer 1"><path class="cls-1" d="M151,202.17H51.17A51.17,51.17,0,0,1,0,151V51.17A51.17,51.17,0,0,1,51.17,0h0a151,151,0,0,1,151,151h0A51.17,51.17,0,0,1,151,202.17Z"/><path class="cls-2" d="M86.74,86.57H78.28V78.86h8.46Zm-8.46,3.81h8.46v31.93H78.28Z"/><path class="cls-2" d="M111.76,90.89a10,10,0,0,1,3.66,3.53V79.18h8.47v43.13h-8.11v-4.42A11.85,11.85,0,0,1,111.7,122a11.39,11.39,0,0,1-5.68,1.29,11.87,11.87,0,0,1-9.42-4.53q-3.82-4.53-3.82-11.62,0-8.18,3.76-12.86a12.28,12.28,0,0,1,10.07-4.69A10.27,10.27,0,0,1,111.76,90.89Zm2,22.75a11.68,11.68,0,0,0,1.85-6.83q0-5.86-3-8.38a6.4,6.4,0,0,0-4.22-1.52,5.87,5.87,0,0,0-5.38,2.77,12.82,12.82,0,0,0-1.71,6.87,12.71,12.71,0,0,0,1.74,7.07,5.91,5.91,0,0,0,5.29,2.65A6.17,6.17,0,0,0,113.81,113.64Z"/></g></g></svg>