<svg xmlns="http://www.w3.org/2000/svg" viewBox="0 0 533.24 216.41"><defs><style>.cls-1{fill:#fff;}</style></defs><g id="Layer_2" data-name="Layer 2"><g id="Layer_1-2" data-name="Layer 1"><path class="cls-1" d="M12.52,74.18h-10V65.11h10Zm-10,4.48h10v37.6h-10Z"/><path class="cls-1" d="M42,79.27a12,12,0,0,1,4.31,4.15V65.49h10v50.77H46.7v-5.21a13.84,13.84,0,0,1-4.79,4.86,13.4,13.4,0,0,1-6.69,1.52,13.94,13.94,0,0,1-11.09-5.33q-4.5-5.32-4.5-13.67,0-9.63,4.43-15.15a14.43,14.43,0,0,1,11.85-5.51A12.14,12.14,0,0,1,42,79.27Zm2.41,26.78a13.71,13.71,0,0,0,2.17-8q0-6.9-3.48-9.86a7.49,7.49,0,0,0-5-1.8,6.92,6.92,0,0,0-6.33,3.26,15.17,15.17,0,0,0-2,8.09A15,15,0,0,0,31.82,106,6.94,6.94,0,0,0,38,109.15,7.25,7.25,0,0,0,44.39,106.05Z"/><path class="cls-1" d="M89.69,79.42A15.25,15.25,0,0,1,96.18,85a18.48,18.48,0,0,1,3,7.77,48.52,48.52,0,0,1,.32,7.46H72.12c.15,3.77,1.46,6.42,3.93,7.93a9.93,9.93,0,0,0,5.42,1.42,8.33,8.33,0,0,0,5.46-1.73,8.23,8.23,0,0,0,2-2.58H99a12.26,12.26,0,0,1-3.64,6.79q-5.05,5.49-14.15,5.48A20.5,20.5,0,0,1,68,112.91q-5.74-4.62-5.74-15,0-9.76,5.18-15t13.45-5.22A21.5,21.5,0,0,1,89.69,79.42ZM75,87.92a10.22,10.22,0,0,0-2.62,5.82H89.3a8.19,8.19,0,0,0-2.62-5.94,8.58,8.58,0,0,0-5.83-2A7.78,7.78,0,0,0,75,87.92Z"/><path class="cls-1" d="M134.79,80.82q3.69,3,3.69,10.12v25.32H128.41V93.39a10.41,10.41,0,0,0-.79-4.55q-1.44-2.9-5.47-2.9c-3.32,0-5.59,1.42-6.82,4.24a14.7,14.7,0,0,0-1,5.73v20.35h-9.83V78.73h9.52v5.49A16.6,16.6,0,0,1,117.63,80a12.44,12.44,0,0,1,7.66-2.27A14.39,14.39,0,0,1,134.79,80.82Z"/><path class="cls-1" d="M143.76,86V79H149V68.52h9.73V79h6.1v7h-6.1v19.87c0,1.54.19,2.5.58,2.88s1.59.57,3.59.57l.95,0,1,0v7.34l-4.65.18q-7,.24-9.52-2.42-1.66-1.68-1.66-5.21V86Z"/><path class="cls-1" d="M181.25,74.18h-10V65.11h10Zm-10,4.48h10v37.6h-10Z"/><path class="cls-1" d="M186.91,86V79h5.24V68.52h9.73V79H208v7h-6.1v19.87c0,1.54.19,2.5.58,2.88s1.59.57,3.59.57l.95,0,1,0v7.34l-4.65.18q-7,.24-9.52-2.42-1.67-1.68-1.66-5.21V86Z"/><path class="cls-1" d="M215.78,123.47l1.24.07a15.62,15.62,0,0,0,2.76-.11,4.89,4.89,0,0,0,2.2-.79,5.32,5.32,0,0,0,1.61-2.45,6,6,0,0,0,.64-2.28L210.41,78.66h10.94l8.21,27.73,7.76-27.73h10.45l-12.89,37q-3.74,10.69-5.91,13.26t-8.7,2.57l-2.11,0c-.53,0-1.33,0-2.38-.12Z"/><path class="cls-1" d="M22.35,164a11.92,11.92,0,0,1,4.31,4.16V150.25h10V201H27.08v-5.2a14,14,0,0,1-4.8,4.86,13.46,13.46,0,0,1-6.69,1.52A14,14,0,0,1,4.5,196.87Q0,191.53,0,183.19q0-9.62,4.43-15.14a14.43,14.43,0,0,1,11.85-5.52A12.12,12.12,0,0,1,22.35,164Zm2.41,26.78a13.68,13.68,0,0,0,2.18-8q0-6.9-3.49-9.87a7.51,7.51,0,0,0-5-1.79,6.9,6.9,0,0,0-6.33,3.26,17.58,17.58,0,0,0,0,16.42,7,7,0,0,0,6.23,3.12A7.24,7.24,0,0,0,24.76,190.81Z"/><path class="cls-1" d="M70.06,164.19a15.31,15.31,0,0,1,6.5,5.56,18.44,18.44,0,0,1,3,7.77,47.16,47.16,0,0,1,.33,7.47H52.5q.22,5.65,3.93,7.93a10,10,0,0,0,5.42,1.41,8.32,8.32,0,0,0,5.46-1.72,8.43,8.43,0,0,0,2-2.59h10a12.28,12.28,0,0,1-3.64,6.8q-5.06,5.48-14.14,5.48a20.48,20.48,0,0,1-13.25-4.63q-5.73-4.62-5.73-15,0-9.76,5.18-15t13.44-5.21A21.46,21.46,0,0,1,70.06,164.19Zm-14.7,8.49a10.16,10.16,0,0,0-2.62,5.82H69.67a8.19,8.19,0,0,0-2.62-5.94,8.61,8.61,0,0,0-5.83-2A7.78,7.78,0,0,0,55.36,172.68Z"/><path class="cls-1" d="M92.47,189a6.61,6.61,0,0,0,1.35,3.73q1.84,2,6.79,2a10.45,10.45,0,0,0,4.63-.86,2.77,2.77,0,0,0,1.72-2.59,2.8,2.8,0,0,0-1.38-2.52c-.93-.57-4.35-1.56-10.29-3q-6.41-1.59-9-4t-2.62-6.76a11.73,11.73,0,0,1,4.1-9q4.1-3.73,11.52-3.74,7,0,11.5,2.81t5.1,9.71H106a5.82,5.82,0,0,0-1.08-3c-1.08-1.33-2.93-2-5.53-2-2.15,0-3.67.33-4.58,1a2.89,2.89,0,0,0-1.37,2.34,2.55,2.55,0,0,0,1.45,2.45q1.45.79,10.27,2.73,5.86,1.38,8.8,4.17a9.49,9.49,0,0,1,2.9,7.07,11.41,11.41,0,0,1-4.16,9.12q-4.17,3.54-12.88,3.54-8.88,0-13.11-3.74A12.16,12.16,0,0,1,82.5,189Z"/><path class="cls-1" d="M134.24,158.94h-10v-9.07h10Zm-10,4.49h10V201h-10Z"/><path class="cls-1" d="M162.36,163.39a11.81,11.81,0,0,1,5.78,5.45v-5.41h9.59v35.66q0,7.28-2.45,11-4.2,6.34-16.14,6.35-7.2,0-11.76-2.83a10.44,10.44,0,0,1-5-8.45H153a4.36,4.36,0,0,0,1.34,2.48Q156,209,159.73,209q5.31,0,7.1-3.56c.79-1.51,1.18-4.07,1.18-7.65v-2.42a11,11,0,0,1-10.66,5.87,14.42,14.42,0,0,1-11.57-5.09q-4.34-5.09-4.33-13.78a23.25,23.25,0,0,1,4.17-14.09q4.17-5.72,11.81-5.71A13,13,0,0,1,162.36,163.39Zm3.35,27c1.58-1.74,2.37-4.5,2.37-8.3q0-5.34-2.25-8.14a7.35,7.35,0,0,0-6-2.79,7.1,7.1,0,0,0-7.11,4.86,17.26,17.26,0,0,0-1,6.38,14.47,14.47,0,0,0,1.1,5.83A7.15,7.15,0,0,0,159.9,193,7.56,7.56,0,0,0,165.71,190.35Z"/><path class="cls-1" d="M217.22,165.58q3.71,3.06,3.7,10.13V201H210.84V178.16a10.63,10.63,0,0,0-.78-4.56q-1.44-2.9-5.48-2.89-5,0-6.81,4.24a14.61,14.61,0,0,0-1,5.72V201H187V163.5h9.52V169a16.5,16.5,0,0,1,3.57-4.17,12.36,12.36,0,0,1,7.66-2.28A14.41,14.41,0,0,1,217.22,165.58Z"/><path class="cls-1" d="M254.55,164.19a15.25,15.25,0,0,1,6.5,5.56,18.58,18.58,0,0,1,3,7.77,48.66,48.66,0,0,1,.32,7.47H237q.22,5.65,3.93,7.93a10,10,0,0,0,5.42,1.41,7.61,7.61,0,0,0,7.48-4.31h10a12.31,12.31,0,0,1-3.65,6.8q-5,5.48-14.14,5.48a20.45,20.45,0,0,1-13.24-4.63q-5.75-4.62-5.74-15,0-9.76,5.18-15t13.44-5.21A21.46,21.46,0,0,1,254.55,164.19Zm-14.7,8.49a10.22,10.22,0,0,0-2.62,5.82h16.94a8.23,8.23,0,0,0-2.62-5.94,8.63,8.63,0,0,0-5.83-2A7.8,7.8,0,0,0,239.85,172.68Z"/><path class="cls-1" d="M290.23,162.55l.84,0v10.07c-.62-.07-1.17-.11-1.65-.14l-1.18,0q-5.92,0-8,3.86a15.18,15.18,0,0,0-1.13,6.69v18h-9.9V163.43h9.38V170a20.89,20.89,0,0,1,4-5.14,10.8,10.8,0,0,1,7.17-2.31Z"/><path class="cls-1" d="M482.07,202.17H382.24A51.17,51.17,0,0,1,331.07,151V51.17A51.17,51.17,0,0,1,382.24,0h0a151,151,0,0,1,151,151h0A51.17,51.17,0,0,1,482.07,202.17Z"/></g></g></svg>